<?xml version="1.0" encoding="utf-8"?>
<!-- Generator: Adobe Illustrator 22.0.1, SVG Export Plug-In . SVG Version: 6.00 Build 0)  -->
<svg version="1.1" id="Layer_1" xmlns="http://www.w3.org/2000/svg" xmlns:xlink="http://www.w3.org/1999/xlink" x="0px" y="0px"
	 viewBox="0 0 542.8 181.5" style="enable-background:new 0 0 542.8 181.5;" xml:space="preserve">
<style type="text/css">
	.st0{fill:#FFFFFF;stroke:#FFFFFF;stroke-width:2.27;stroke-miterlimit:10;}
	.st1{fill:#FFFFFF;}
</style>
<title>azureinnlogo</title>
<path class="st0" d="M164.1,47.9l-1.1,6.8l1,0.9l3.5-5.6c2.3,1.1,1-1,1-1l5.8-3l-0.9-1l-7,0.5c-1.6-3-7.3-9-7.3-9
	c5.2-3.4,17.2-8.1,17.2-8.1l-1.2-2c-8.6,1.5-21,4.7-21,4.7c-0.3-1-8.5-9.2-8.5-9.2l-3-0.7c0,0-1.5-0.4-1.1,1.1s0.6,2.9,0.6,2.9
	s7.6,8.9,8.5,9.2c0,0-4.1,12.1-6.3,20.5l1.9,1.3c0,0,5.8-11.4,9.6-16.3C158.4,42.8,161.1,45.5,164.1,47.9z"/>
<path class="st1" d="M238.9,73.3l0.6,15.4h-1.2c-1.8-5.4-3.4-9.1-4.8-11.1c-1.3-2-3.6-3.1-6-3h-0.8v40.3h5.2v1.3h-22.3v-1.3h5.2
	V74.6H214c-2.4-0.1-4.7,1.1-6.1,3.1c-1.4,2.1-3,5.7-4.7,11H202l0.6-15.4L238.9,73.3z"/>
<path class="st1" d="M243.1,73.3h19.1v1.2h-3.5v19h12.2v-19h-3.6v-1.2h19.2v1.2h-3.6V115h3.6v1.2h-19.2V115h3.6V95h-12.2v20h3.5v1.2
	h-19.1V115h3.6V74.5h-3.6V73.3z"/>
<path class="st1" d="M289,73.3h31.9l0.6,12.1h-1.1c-1.7-4.1-3.5-7-5.4-8.5s-4.6-2.3-8.3-2.3h-2.1v18.9h2.1c1.9,0,3.6-0.8,4.8-2.2
	c1.4-1.7,2.4-3.7,2.8-5.9h0.9v18.1h-1c-0.7-3.1-1.7-5.2-3-6.6s-3.2-2.1-5.1-2h-1.5v19.7h2.3c3.5,0.1,6.9-1.1,9.6-3.4
	s4.5-5.3,5.4-8.6h1.2l-0.5,13.4H289v-1.3h3.6V74.6H289V73.3z"/>
<path class="st1" d="M363.5,115l-4.5-13.2h-12.1l-4.7,13.2h4.6v1.2h-9.4V115h2.9l15.6-42.1h5l15.5,42.1h2.8v1.2h-20V115H363.5z
	 M353.2,84.4l-5.8,16.1h11.1L353.2,84.4z"/>
<path class="st1" d="M413.2,73.3v1.4l-18.1,40.2h2.1c3.6,0,7-1.2,9.7-3.5c3-2.6,5.1-6.1,6-10h1.1l-0.7,15H382v-1.2l18.3-40.4h-2.5
	c-3.6,0-6.4,0.8-8.3,2.4s-4,4.9-6.4,9.8H382l0.9-13.5L413.2,73.3z"/>
<path class="st1" d="M433.8,111.8c1.3,2,3.6,3,7,3s5.9-1,7.7-3.1s2.7-5.2,2.7-9.5V74.5h-4v-1.2h9v1.2h-3.4v27.3
	c0,5.1-1.1,8.9-3.4,11.3c-2.3,2.5-6.2,3.7-12,3.8c-5.7,0-10.1-1.2-13.1-3.6s-4.5-6.4-4.5-12.2V74.5h-3.4v-1.2h19.3v1.2h-4v28.7
	C431.8,106.9,432.5,109.8,433.8,111.8z"/>
<path class="st1" d="M477.2,94.5H474V115h4v1.2h-20V115h4V74.5h-4v-1.2h18.5c3.8-0.1,7.6,0.2,11.3,0.8c1.7,0.3,3.3,1,4.7,2
	c2,1.6,3,4.1,3,7.6s-0.9,6-2.6,7.5s-4.3,2.4-7.8,2.7V94c3.3,0.5,5.6,1.5,6.9,3s2,4.1,2,7.6v3.2c-0.1,1.4,0,2.9,0.3,4.3
	c0.1,0.7,0.8,1.1,1.4,1.1c0.7,0,1.4-0.4,1.8-1c0.6-1.3,1-2.8,1.2-4.3l1,0.1c-0.4,3.5-1.2,5.8-2.4,7s-3.4,1.8-6.7,1.8
	c-3.3,0-5.7-0.8-7.1-2.4s-2.1-4.5-2.1-8.9V101c0.1-1.7-0.2-3.4-0.9-5C479.8,95,478.6,94.4,477.2,94.5z M474,74.5v18.9h2
	c2,0.2,3.9-0.6,5.2-2.1c1.1-1.4,1.7-3.8,1.7-7v-1.8c0-3.2-0.5-5.4-1.6-6.4s-2.8-1.6-5.2-1.6H474z"/>
<path class="st1" d="M502.3,73.3h31.9l0.6,12.1h-1.1c-1.7-4.1-3.5-7-5.4-8.5s-4.6-2.3-8.3-2.3h-2.2v18.9h2.1c1.9,0,3.6-0.8,4.8-2.2
	c1.4-1.7,2.4-3.7,2.8-5.9h0.9v18.1h-1c-0.7-3.1-1.7-5.2-3-6.6s-3.2-2.1-5.1-2h-1.5v19.7h2.3c3.5,0.1,6.9-1.1,9.6-3.4
	c2.6-2.3,4.5-5.3,5.4-8.6h1.2l-0.5,13.4h-33.7v-1.4h3.6v-40h-3.6v-1.3H502.3z"/>
<path class="st1" d="M90.6,7c-39.4-0.1-74,26.2-84.3,64.3c-12.1,47,16.1,94.9,63.1,107.1c45.9,11.8,92.9-14.8,106.3-60.2
	c1.4-4.6,2.4-9.4,2.9-14.2c1.8-14.5,0-29.3-5.3-43c-1.8-4.5-3.9-8.9-6.4-13.1c2.5,4.2,4.7,8.5,6.5,13c5.4,13.7,7.4,28.5,5.8,43.1
	c-0.5,4.9-1.5,9.7-2.8,14.4C162.8,166.1,113,193.7,65.2,180c-16.2-4.7-30.9-13.8-42.1-26.4c-33.4-37.5-30.2-95,7.4-128.5
	C47,10.3,68.4,2.1,90.6,2V7z"/>
<path class="st1" d="M48,104c-2.4-1.3-5.1-2-7.8-2c-10.2,0-16.9,8.1-16.9,15.5c0,6.3,4.9,12.1,16.2,12.1c15.2,0,36.8-7.2,43.9-30.7
	c-3.2,1.1-6.6,1.7-10,1.8c-13.5,0-20.1-9.5-20.1-18.2c0-2.6,0.6-5.2,1.9-7.5c-4.1-3.1-7.1-8.3-7.1-15.5c0-11.6,8.3-24,29.3-24
	c23.6,0,36.1,22.7,40.7,45.6c4.9-2.2,9.4-3.6,13.6-3.6c8.6,0,12.5,5.8,12.5,11.5c0,5.2-3.5,10.5-9.9,10.5c-2.6,0-5.1-1-7-2.7
	l0.1-0.1c1.9,1.7,4.3,2.6,6.8,2.7c4.9,0,6.8-5.8,6.8-9.8c0-5.5-2.8-11.7-10.2-11.7c-3.8,0-8.2,1.4-12.7,3.5
	c0.7,3.9,1.2,7.8,1.7,11.5c1.9,20.8,3.3,38.9,17.8,38.9c8.3,0,13.1-6.7,13.1-13.6c-0.1-5.2-4.3-9.4-9.5-9.5c-1.8,0-3.5,0.5-5,1.5
	l-0.1-0.1c1.5-1,3.3-1.6,5.2-1.5c5.8,0,11.8,5.3,11.8,15.2c0,13.6-10.9,21-22,21c-23.6,0-27-26-27.5-51.5l-0.2-3.8
	c-5.3,3.1-10.8,5.9-16.5,8.3c-2.4,39.5-20.4,48.8-36.9,48.8c-14.9,0-28.7-11.2-28.7-24.3c0-9.9,7.4-20.4,18.9-20.4
	c2.6,0,5.2,0.7,7.5,2L48,104z M103.3,89c-1.9-36.5-17.9-50.7-33-50.7c-11.8,0-22,8.5-22,21.5c0,7,2.9,12,7,15
	c2.3-4.2,6.8-6.7,11.6-6.6l-0.7,0.3c-4.4,0.1-8.5,2.5-10.7,6.4c2.9,2,6.3,3,9.7,3c7.3,0,14.4-4.9,15-15c4.2,5.6,6.9,17,6.9,25.7
	c0,3.1-0.1,6.1-0.3,8.9C92.6,95.1,98,92.2,103.3,89L103.3,89z M83.4,98.7c1.6-5.4,2.3-11,2.3-16.5c0-5.4-2.1-14.1-5.3-18.5
	c-0.8,9.7-8,14.6-15.2,14.6c-3.5,0-7-1.1-9.8-3.1c-1.2,2.3-1.9,4.8-1.9,7.4c0,9.5,7.4,18,20.2,18C77,100.4,80.3,99.8,83.4,98.7z"/>
</svg>
